<svg width="543" height="544" viewBox="0 0 543 544" fill="none" xmlns="http://www.w3.org/2000/svg">
<circle cx="271.5" cy="271.652" r="271.5" fill="url(#paint0_linear_307_2686)" fill-opacity="0.1"/>
<path d="M12.9999 370.402H529.105V370.66H12.9999V370.402Z" fill="#EBEBEB"/>
<path d="M64.7136 387.01H98.9004V387.268H64.7136V387.01Z" fill="#EBEBEB"/>
<path d="M187.217 389.818H196.187V390.076H187.217V389.818Z" fill="#EBEBEB"/>
<path d="M99.9326 377.431H119.741V377.689H99.9326V377.431Z" fill="#EBEBEB"/>
<path d="M430.374 379.165H474.955V379.423H430.374V379.165Z" fill="#EBEBEB"/>
<path d="M414.643 379.165H421.177V379.423H414.643V379.165Z" fill="#EBEBEB"/>
<path d="M296.703 383.521H393.4V383.779H296.703V383.521Z" fill="#EBEBEB"/>
<path d="M284.471 324.365H483.78C485.342 324.363 486.838 323.74 487.941 322.635C489.045 321.53 489.664 320.033 489.664 318.471V38.2987C489.65 36.7463 489.025 35.2619 487.923 34.168C486.822 33.0742 485.333 32.4591 483.78 32.4564H284.471C282.908 32.4564 281.409 33.0774 280.303 34.1827C279.198 35.288 278.577 36.7872 278.577 38.3503V318.471C278.577 320.035 279.198 321.534 280.303 322.639C281.409 323.744 282.908 324.365 284.471 324.365V324.365ZM483.78 32.6629C485.273 32.6656 486.704 33.2606 487.759 34.3172C488.814 35.3738 489.406 36.8058 489.406 38.2987V318.471C489.406 319.964 488.814 321.396 487.759 322.453C486.704 323.509 485.273 324.104 483.78 324.107H284.471C282.977 324.104 281.545 323.51 280.489 322.453C279.433 321.397 278.838 319.965 278.835 318.471V38.2987C278.838 36.8048 279.433 35.3729 280.489 34.3166C281.545 33.2602 282.977 32.6656 284.471 32.6629H483.78Z" fill="#EBEBEB"/>
<path d="M61.1937 324.365H260.513C262.076 324.363 263.573 323.741 264.678 322.636C265.783 321.531 266.404 320.034 266.407 318.471V38.2987C266.391 36.7454 265.763 35.261 264.66 34.1674C263.557 33.0738 262.067 32.4591 260.513 32.4564H61.1937C59.643 32.4618 58.1569 33.0781 57.0575 34.1717C55.9581 35.2653 55.334 36.7481 55.3204 38.2987V318.471C55.3204 320.031 55.9385 321.527 57.0394 322.632C58.1402 323.736 59.6341 324.36 61.1937 324.365V324.365ZM260.513 32.6629C262.007 32.6656 263.439 33.2602 264.495 34.3166C265.552 35.3729 266.146 36.8048 266.149 38.2987V318.471C266.146 319.965 265.552 321.397 264.495 322.453C263.439 323.51 262.007 324.104 260.513 324.107H61.1937C59.6998 324.104 58.2679 323.51 57.2115 322.453C56.1552 321.397 55.5605 319.965 55.5578 318.471V38.2987C55.5605 36.8048 56.1552 35.3729 57.2115 34.3166C58.2679 33.2602 59.6998 32.6656 61.1937 32.6629H260.513Z" fill="#EBEBEB"/>
<path d="M102.524 64.9401H152.823V126.862H102.524V64.9401Z" fill="#F5F5F5"/>
<path d="M105.475 67.8921H149.86V123.889H105.475V67.8921Z" fill="#EBEBEB"/>
<path d="M110.863 109.759V123.89H144.482V109.759C144.49 106.093 143.204 102.542 140.852 99.7306C138.499 96.9193 135.231 95.0278 131.621 94.389C133.973 93.4688 135.931 91.7559 137.154 89.5462C138.378 87.3365 138.791 84.7687 138.323 82.2866C137.855 79.8044 136.535 77.5637 134.59 75.9516C132.645 74.3395 130.199 73.4573 127.673 73.4573C125.147 73.4573 122.7 74.3395 120.756 75.9516C118.811 77.5637 117.491 79.8044 117.022 82.2866C116.554 84.7687 116.968 87.3365 118.191 89.5462C119.415 91.7559 121.372 93.4688 123.725 94.389C120.115 95.0278 116.846 96.9193 114.494 99.7306C112.141 102.542 110.856 106.093 110.863 109.759V109.759Z" fill="#E0E0E0"/>
<path d="M398.52 79.36H440.397V107.477H398.52V79.36Z" fill="#E0E0E0"/>
<path d="M419.453 70.4521L453.062 79.3601L419.453 88.2681L385.845 79.3601L419.453 70.4521Z" fill="#EBEBEB"/>
<path d="M402.143 100.902V83.8708C402.144 83.7087 402.198 83.5513 402.297 83.4227C402.395 83.2941 402.534 83.2014 402.69 83.1586L419.288 78.6478C419.477 78.597 419.678 78.6227 419.848 78.7193C420.018 78.8159 420.143 78.9757 420.196 79.1639C420.223 79.2575 420.23 79.3553 420.219 79.4519C420.207 79.5484 420.176 79.6417 420.128 79.7262C420.08 79.8107 420.016 79.8849 419.939 79.9443C419.862 80.0037 419.774 80.0472 419.68 80.0723L403.619 84.4385V100.882C404.049 101.053 404.406 101.369 404.629 101.776C404.851 102.182 404.925 102.653 404.837 103.108C404.75 103.563 404.507 103.973 404.15 104.268C403.793 104.563 403.344 104.724 402.881 104.724C402.418 104.724 401.969 104.563 401.612 104.268C401.255 103.973 401.012 103.563 400.925 103.108C400.837 102.653 400.911 102.182 401.133 101.776C401.356 101.369 401.713 101.053 402.143 100.882V100.902Z" fill="#F5F5F5"/>
<path d="M311.732 42.0457L318.658 82.4876H282.149L311.732 42.0457Z" fill="#E0E0E0"/>
<path d="M255.92 82.4876H305.683L311.732 42.0457H261.969L255.92 82.4876Z" fill="#F5F5F5"/>
<path d="M260.865 49.4569H310.627L311.732 42.0457H261.969L260.865 49.4569Z" fill="#EBEBEB"/>
<path d="M295.526 57.0849H299.82L300.46 52.7496H296.176L295.526 57.0849Z" fill="#E0E0E0"/>
<path d="M288.992 57.085H293.286L293.926 52.7498H289.643L288.992 57.085Z" fill="#E0E0E0"/>
<path d="M282.459 57.0849H286.753L287.393 52.7496H283.109L282.459 57.0849Z" fill="#E0E0E0"/>
<path d="M275.924 57.085H280.218L280.858 52.7498H276.575L275.924 57.085Z" fill="#E0E0E0"/>
<path d="M269.39 57.0849H273.684L274.324 52.7496H270.041L269.39 57.0849Z" fill="#E0E0E0"/>
<path d="M262.857 57.0849H267.151L267.791 52.7496H263.507L262.857 57.0849Z" fill="#E0E0E0"/>
<path d="M301.141 63.2679H305.425L306.075 58.943H301.781L301.141 63.2679Z" fill="#E0E0E0"/>
<path d="M294.597 63.2679H298.891L299.542 58.943H295.248L294.597 63.2679Z" fill="#E0E0E0"/>
<path d="M288.073 63.2679H292.357L293.007 58.943H288.713L288.073 63.2679Z" fill="#E0E0E0"/>
<path d="M281.54 63.2679H285.823L286.474 58.943H282.18L281.54 63.2679Z" fill="#E0E0E0"/>
<path d="M275.005 63.2679H279.289L279.939 58.943H275.645L275.005 63.2679Z" fill="#E0E0E0"/>
<path d="M268.472 63.2679H272.755L273.406 58.943H269.112L268.472 63.2679Z" fill="#E0E0E0"/>
<path d="M261.938 63.2679H266.222L266.872 58.943H262.578L261.938 63.2679Z" fill="#E0E0E0"/>
<path d="M300.212 69.4611H304.496L305.146 65.1259H300.862L300.212 69.4611Z" fill="#E0E0E0"/>
<path d="M293.678 69.4611H297.962L298.612 65.1259H294.329L293.678 69.4611Z" fill="#E0E0E0"/>
<path d="M287.145 69.4611H291.428L292.079 65.1259H287.795L287.145 69.4611Z" fill="#E0E0E0"/>
<path d="M280.61 69.4611H284.894L285.544 65.1259H281.261L280.61 69.4611Z" fill="#E0E0E0"/>
<path d="M274.077 69.4611H278.36L279.011 65.1259H274.727L274.077 69.4611Z" fill="#E0E0E0"/>
<path d="M267.543 69.4611H271.826L272.477 65.1259H268.193L267.543 69.4611Z" fill="#E0E0E0"/>
<path d="M261.009 69.4611H265.293L265.943 65.1259H261.659L261.009 69.4611Z" fill="#E0E0E0"/>
<path d="M299.283 75.644H303.567L304.217 71.3191H299.934L299.283 75.644Z" fill="#E0E0E0"/>
<path d="M292.749 75.644H297.043L297.683 71.3191H293.399L292.749 75.644Z" fill="#E0E0E0"/>
<path d="M286.215 75.644H290.509L291.149 71.3191H286.866L286.215 75.644Z" fill="#E0E0E0"/>
<path d="M279.682 75.644H283.976L284.616 71.3191H280.332L279.682 75.644Z" fill="#E0E0E0"/>
<path d="M273.148 75.644H277.442L278.082 71.3191H273.798L273.148 75.644Z" fill="#E0E0E0"/>
<path d="M266.614 75.644H270.908L271.559 71.3191H267.265L266.614 75.644Z" fill="#E0E0E0"/>
<path d="M66.2208 210.76H103.865C105.114 210.76 106.126 211.772 106.126 213.021V266.809C106.126 268.058 105.114 269.07 103.865 269.07H66.2208C64.9723 269.07 63.9603 268.058 63.9603 266.809V213.021C63.9603 211.772 64.9723 210.76 66.2208 210.76Z" fill="#E0E0E0"/>
<path d="M72.1968 205.021H109.842C111.09 205.021 112.102 206.033 112.102 207.282V261.07C112.102 262.319 111.09 263.331 109.842 263.331H72.1968C70.9484 263.331 69.9363 262.319 69.9363 261.07V207.282C69.9363 206.033 70.9484 205.021 72.1968 205.021Z" fill="#F5F5F5"/>
<path d="M77.286 214.198H104.753C104.934 214.199 105.113 214.164 105.28 214.096C105.447 214.027 105.599 213.926 105.727 213.799C105.855 213.671 105.956 213.519 106.024 213.352C106.093 213.185 106.127 213.005 106.126 212.825V212.825C106.126 212.461 105.981 212.111 105.724 211.854C105.466 211.597 105.117 211.452 104.753 211.452H77.286C76.9219 211.452 76.5727 211.597 76.3153 211.854C76.0578 212.111 75.9132 212.461 75.9132 212.825V212.825C75.9118 213.005 75.9464 213.185 76.0149 213.352C76.0834 213.519 76.1844 213.671 76.3122 213.799C76.44 213.926 76.5919 214.027 76.759 214.096C76.9262 214.164 77.1053 214.199 77.286 214.198V214.198Z" fill="#EBEBEB"/>
<path d="M77.286 221.351H104.753C105.117 221.351 105.466 221.206 105.724 220.949C105.981 220.691 106.126 220.342 106.126 219.978V219.978C106.127 219.797 106.093 219.617 106.024 219.449C105.956 219.282 105.855 219.129 105.728 219C105.6 218.872 105.448 218.77 105.281 218.7C105.114 218.631 104.934 218.595 104.753 218.595H77.286C77.1049 218.595 76.9255 218.631 76.7582 218.7C76.591 218.77 76.4392 218.872 76.3116 219C76.184 219.129 76.0831 219.282 76.0147 219.449C75.9463 219.617 75.9118 219.797 75.9132 219.978V219.978C75.9132 220.342 76.0578 220.691 76.3153 220.949C76.5727 221.206 76.9219 221.351 77.286 221.351V221.351Z" fill="#EBEBEB"/>
<path d="M77.286 228.432H104.753C104.934 228.433 105.113 228.398 105.28 228.33C105.447 228.261 105.599 228.16 105.727 228.033C105.855 227.905 105.956 227.753 106.024 227.586C106.093 227.419 106.127 227.239 106.126 227.059V227.059C106.126 226.695 105.981 226.345 105.724 226.088C105.466 225.831 105.117 225.686 104.753 225.686H77.286C76.9219 225.686 76.5727 225.831 76.3153 226.088C76.0578 226.345 75.9132 226.695 75.9132 227.059V227.059C75.9118 227.239 75.9464 227.419 76.0149 227.586C76.0834 227.753 76.1844 227.905 76.3122 228.033C76.44 228.16 76.5919 228.261 76.759 228.33C76.9262 228.398 77.1053 228.433 77.286 228.432V228.432Z" fill="#EBEBEB"/>
<path d="M77.286 235.554H104.753C104.933 235.554 105.112 235.519 105.278 235.45C105.445 235.381 105.596 235.279 105.724 235.152C105.851 235.024 105.952 234.873 106.021 234.707C106.09 234.54 106.126 234.361 106.126 234.181V234.181C106.127 234 106.093 233.82 106.024 233.653C105.956 233.485 105.855 233.332 105.728 233.204C105.6 233.075 105.448 232.973 105.281 232.903C105.114 232.834 104.934 232.798 104.753 232.798H77.286C77.1049 232.798 76.9255 232.834 76.7582 232.903C76.591 232.973 76.4392 233.075 76.3116 233.204C76.184 233.332 76.0831 233.485 76.0147 233.653C75.9463 233.82 75.9118 234 75.9132 234.181V234.181C75.9132 234.361 75.9487 234.54 76.0177 234.707C76.0867 234.873 76.1878 235.024 76.3153 235.152C76.4427 235.279 76.5941 235.381 76.7606 235.45C76.9272 235.519 77.1057 235.554 77.286 235.554V235.554Z" fill="#EBEBEB"/>
<path d="M77.286 242.666H104.753C104.934 242.667 105.113 242.633 105.28 242.564C105.447 242.496 105.599 242.395 105.727 242.267C105.855 242.139 105.956 241.987 106.024 241.82C106.093 241.653 106.127 241.474 106.126 241.293V241.293C106.127 241.112 106.093 240.933 106.024 240.766C105.956 240.599 105.855 240.447 105.727 240.319C105.599 240.191 105.447 240.09 105.28 240.022C105.113 239.953 104.934 239.919 104.753 239.92H77.286C77.1053 239.919 76.9262 239.953 76.759 240.022C76.5919 240.09 76.44 240.191 76.3122 240.319C76.1844 240.447 76.0834 240.599 76.0149 240.766C75.9464 240.933 75.9118 241.112 75.9132 241.293V241.293C75.9118 241.474 75.9464 241.653 76.0149 241.82C76.0834 241.987 76.1844 242.139 76.3122 242.267C76.44 242.395 76.5919 242.496 76.759 242.564C76.9262 242.633 77.1053 242.667 77.286 242.666V242.666Z" fill="#EBEBEB"/>
<path d="M77.286 249.788H104.753C104.934 249.788 105.114 249.752 105.281 249.683C105.448 249.613 105.6 249.511 105.728 249.382C105.855 249.254 105.956 249.101 106.024 248.933C106.093 248.766 106.127 248.586 106.126 248.405C106.126 248.041 105.981 247.692 105.724 247.434C105.466 247.177 105.117 247.032 104.753 247.032H77.286C76.9219 247.032 76.5727 247.177 76.3153 247.434C76.0578 247.692 75.9132 248.041 75.9132 248.405C75.9118 248.586 75.9463 248.766 76.0147 248.933C76.0831 249.101 76.184 249.254 76.3116 249.382C76.4392 249.511 76.591 249.613 76.7582 249.683C76.9255 249.752 77.1049 249.788 77.286 249.788V249.788Z" fill="#EBEBEB"/>
<path d="M83.4793 256.9H104.753C105.117 256.9 105.466 256.755 105.724 256.498C105.981 256.241 106.126 255.891 106.126 255.527C106.127 255.347 106.093 255.167 106.024 255C105.956 254.833 105.855 254.681 105.727 254.554C105.599 254.426 105.447 254.325 105.28 254.256C105.113 254.188 104.934 254.153 104.753 254.154H83.4793C83.2986 254.153 83.1195 254.188 82.9523 254.256C82.7852 254.325 82.6333 254.426 82.5055 254.554C82.3777 254.681 82.2767 254.833 82.2082 255C82.1397 255.167 82.1051 255.347 82.1065 255.527C82.1065 255.891 82.2511 256.241 82.5086 256.498C82.766 256.755 83.1152 256.9 83.4793 256.9Z" fill="#EBEBEB"/>
<path d="M128.143 129.567V132.147" stroke="#EBEBEB" stroke-width="2" stroke-linecap="round" stroke-linejoin="round"/>
<path d="M128.143 137.174V174.881" stroke="#2153CC" stroke-width="2" stroke-linecap="round" stroke-linejoin="round" stroke-dasharray="4.87 4.87"/>
<path d="M128.143 177.399V179.98H130.723" stroke="#EBEBEB" stroke-width="2" stroke-linecap="round" stroke-linejoin="round"/>
<path d="M135.864 179.98H225.79" stroke="#EBEBEB" stroke-width="2" stroke-linecap="round" stroke-linejoin="round" stroke-dasharray="4.98 4.98"/>
<path d="M228.36 179.98H230.941V182.56" stroke="#EBEBEB" stroke-width="2" stroke-linecap="round" stroke-linejoin="round"/>
<path d="M230.941 188.041V196.268" stroke="#EBEBEB" stroke-width="2" stroke-linecap="round" stroke-linejoin="round" stroke-dasharray="5.31 5.31"/>
<path d="M230.941 199.014V201.594H233.521" stroke="#EBEBEB" stroke-width="2" stroke-linecap="round" stroke-linejoin="round"/>
<path d="M239.229 201.594H247.807" stroke="#EBEBEB" stroke-width="2" stroke-linecap="round" stroke-linejoin="round" stroke-dasharray="5.54 5.54"/>
<path d="M250.666 201.594H253.247" stroke="#EBEBEB" stroke-width="2" stroke-linecap="round" stroke-linejoin="round"/>
<path d="M87.1953 274.489V293.698H230.941V232.798H251.348" stroke="#2153CC" stroke-width="2" stroke-linecap="round" stroke-linejoin="round" stroke-dasharray="5 5"/>
<path d="M251.347 63.2678H223.601V170.927H274.324" stroke="#2153CC" stroke-width="2" stroke-linecap="round" stroke-linejoin="round" stroke-dasharray="5 5"/>
<path d="M392.461 95.927H366.914V202.854H328.371" stroke="#2153CC" stroke-width="2" stroke-linecap="round" stroke-linejoin="round" stroke-dasharray="5 5"/>
<path d="M449.366 300.48L460.814 293.255L472.55 300.48V261.896H449.366V300.48Z" fill="#E0E0E0"/>
<path d="M448.197 271.151C441.147 264.101 441.147 252.67 448.197 245.62C455.247 238.57 466.678 238.57 473.728 245.62C480.779 252.67 480.779 264.101 473.728 271.151C466.678 278.202 455.247 278.202 448.197 271.151Z" fill="#F5F5F5"/>
<path d="M450.124 269.224C444.138 263.238 444.138 253.533 450.124 247.547C456.11 241.561 465.816 241.561 471.802 247.547C477.788 253.533 477.788 263.238 471.802 269.224C465.816 275.21 456.11 275.21 450.124 269.224Z" fill="#EBEBEB"/>
<path d="M436.743 258.892H357.108V232.798H328.371" stroke="#2153CC" stroke-width="2" stroke-linecap="round" stroke-linejoin="round" stroke-dasharray="5 5"/>
<path d="M271.052 417.016C160.52 417.016 70.9165 411.785 70.9165 405.332C70.9165 398.879 160.52 393.647 271.052 393.647C381.583 393.647 471.187 398.879 471.187 405.332C471.187 411.785 381.583 417.016 271.052 417.016Z" fill="#F5F5F5"/>
<path d="M412.692 121.794C412.692 121.794 417.853 123.704 419.483 130.774C421.114 137.845 416.779 153.101 416.088 160.316C415.396 167.531 423.313 182.158 402.741 183.489C382.169 184.821 379.196 128.689 388.724 124.767C398.251 120.845 412.692 121.794 412.692 121.794Z" fill="#1C47B1"/>
<path d="M389.694 125.582C383.955 122.878 381.498 141.561 383.501 155.042" stroke="#2153CC" stroke-width="0.5" stroke-linecap="round" stroke-linejoin="round"/>
<path d="M340.901 118.037L338.455 111.307C338.455 111.307 339.487 110.079 334.78 107.828C330.073 105.578 327.204 104.36 325.274 104.969C323.343 105.578 320.691 109.924 320.897 111.431C321.104 112.938 333.965 115.033 333.965 115.033L335.802 120.194L340.901 118.037Z" fill="white"/>
<path d="M380.693 152.451C380.693 152.451 358.232 145.71 354.558 142.263C350.883 138.815 340.489 113.134 340.489 113.134L332.943 116.231C332.943 116.231 340.674 146.061 347.208 152.967C353.742 159.872 378.856 172.114 378.856 172.114L380.693 152.451Z" fill="#CC9921"/>
<path d="M421.321 381.405L416.335 384.337C413.997 381.19 411.466 378.191 408.759 375.356V375.356C407.314 373.829 405.796 372.136 404.217 370.319C401.059 366.696 397.642 362.557 394.06 358.108L390.85 354.093C378.402 338.383 364.88 319.927 359.822 307.447C358.253 303.566 357.489 300.222 357.83 297.807C358.862 290.354 361.752 279.134 365.055 268.296C370.092 251.729 375.759 236.029 375.759 236.029L389.684 259.615C389.684 259.615 385.41 269.803 381.519 280.651C377.689 291.304 374.231 302.606 375.511 305.548C375.635 305.837 375.79 306.178 375.966 306.58C378.278 311.37 384.677 322.218 391.944 334.202L394.163 337.846C398.065 344.246 402.122 350.821 405.879 356.859C407.345 359.233 408.769 361.525 410.121 363.692C416.542 373.942 421.321 381.405 421.321 381.405Z" fill="#CC9921"/>
<path opacity="0.4" d="M390.561 354.083C397.147 362.34 403.474 369.875 408.181 375.346C408.852 371.981 409.533 367.997 410.07 363.651C404.63 354.919 397.972 344.142 391.924 334.161C392.052 340.829 391.596 347.495 390.561 354.083V354.083Z" fill="#77580D"/>
<path d="M415.416 285.833C413.693 297.59 411.288 308.242 409.636 314.59C408.676 318.399 408.026 320.649 408.026 320.649C408.003 332.722 407.293 344.784 405.9 356.777C405.373 361.504 404.805 366.067 404.217 370.268C402.049 385.895 399.768 397.105 399.768 397.105L393.833 396.331L394.06 358.046L394.184 337.753L394.349 310.141L394.411 305.331L394.7 284.336L395.123 253.37L415.767 244.08C418.534 255.899 417.502 271.671 415.416 285.833Z" fill="#CC9921"/>
<path opacity="0.2" d="M360.173 286.029C365.447 289.673 372.559 291.861 377.442 293.038C378.567 289.188 380.022 284.863 381.571 280.651C385.462 269.803 389.735 259.615 389.735 259.615L375.811 236.029C375.811 236.029 370.144 251.729 365.107 268.296C363.228 274.324 361.515 280.476 360.173 286.029Z" fill="black"/>
<path opacity="0.2" d="M394.525 297.383C400.94 297.245 407.344 296.783 413.713 296C414.312 292.769 414.9 289.353 415.417 285.833C417.481 271.671 418.513 255.899 415.767 244.132L395.123 253.422L394.7 284.388L394.525 297.383Z" fill="black"/>
<path d="M359.172 283.975C372.085 291.562 410.07 294.782 410.07 294.782L416.263 277.317L415.561 294.638H417.409C417.409 294.638 431.282 247.672 412.846 216.892L379.816 214.342L376.203 231.353C376.203 231.353 366.934 255.692 359.172 283.975Z" fill="#263238"/>
<path d="M383.397 404.764C384.37 404.184 385.44 403.785 386.556 403.587V403.587C386.556 403.587 390.21 400.873 393.1 391.531L397.446 391.036C398.184 390.968 398.925 391.13 399.568 391.5C400.211 391.869 400.724 392.428 401.038 393.1C401.13 393.285 401.193 393.484 401.224 393.688C401.291 394.74 401.291 395.795 401.224 396.847C400.96 400.372 400.484 403.877 399.799 407.345L399.035 407.241L399.675 400.615C399.882 398.364 397.797 400.738 396.96 403.082C396.124 405.425 394.731 407.83 389.818 407.21C384.089 406.519 381.746 405.961 383.397 404.764Z" fill="#2E353A"/>
<path d="M394.298 388.228C394.298 388.228 392.749 392.45 390.685 397.095C389.737 399.503 388.335 401.708 386.556 403.587C386.556 403.587 390.148 404.754 392.078 402.504C394.009 400.253 397.332 392.13 401.038 393.069C400.841 392.408 400.563 391.774 400.212 391.18C399.655 390.262 394.298 388.228 394.298 388.228Z" fill="#CC9921"/>
<path d="M419.762 401.1C419.97 399.981 420.383 398.91 420.98 397.941V397.941C420.98 397.941 421.362 393.41 416.284 385.059L418.792 381.478C419.225 380.879 419.832 380.429 420.53 380.187C421.228 379.945 421.983 379.924 422.694 380.125C422.893 380.182 423.084 380.265 423.261 380.373C424.094 381.012 424.887 381.701 425.635 382.437C428.1 384.973 430.41 387.654 432.551 390.468L431.963 390.964L427.421 386.091C425.873 384.45 426.275 387.588 427.473 389.756C428.67 391.923 429.537 394.576 425.863 397.879C421.538 401.74 419.566 403.123 419.762 401.1Z" fill="#2E353A"/>
<path d="M414.601 381.963C414.601 381.963 416.738 385.926 418.854 390.551C420.026 392.857 420.748 395.365 420.98 397.941C420.98 397.941 424.221 396.032 423.819 393.09C423.416 390.148 419.535 382.293 422.694 380.125C422.066 379.841 421.408 379.629 420.733 379.496C419.69 379.279 414.601 381.963 414.601 381.963Z" fill="#CC9921"/>
<path d="M413.187 213.475L413.373 218.461L379.238 217.129L379.01 211.235L413.187 213.475Z" fill="#263238"/>
<path opacity="0.2" d="M413.187 213.475L413.373 218.461L379.238 217.129L379.01 211.235L413.187 213.475Z" fill="white"/>
<path d="M401.654 211.802L403.347 211.825L403.231 220.443L401.538 220.42L401.654 211.802Z" fill="#263238"/>
<path d="M386.939 211.818L394.402 212.204L394.11 217.864L386.646 217.478L386.939 211.818Z" fill="white"/>
<path d="M380.783 210.299L382.476 210.322L382.362 218.94L380.669 218.918L380.783 210.299Z" fill="#263238"/>
<path d="M422.456 215.581L414.653 220.04C412.833 220.731 411.315 222.044 410.369 223.745C408.46 226.842 411.205 238.651 412.692 238.651C414.178 238.651 422.57 236.813 422.456 235.182C422.343 233.551 419.091 225.789 419.091 225.789L426.637 221.093L422.456 215.581Z" fill="white"/>
<path d="M413.373 213.465C413.373 213.465 415.437 183.2 422.456 165.901C422.456 165.901 408.005 158.138 380.693 152.482C380.693 152.482 372.869 171.526 379.011 211.596L413.373 213.465Z" fill="#CC9921"/>
<path opacity="0.6" d="M390.674 184.46C390.138 184.46 389.704 184.025 389.704 183.489C389.704 182.953 390.138 182.519 390.674 182.519C391.21 182.519 391.645 182.953 391.645 183.489C391.645 184.025 391.21 184.46 390.674 184.46Z" fill="white"/>
<path opacity="0.6" d="M388.724 195.236C388.749 195.477 388.862 195.701 389.042 195.863C389.222 196.026 389.456 196.116 389.699 196.116C389.942 196.116 390.176 196.026 390.356 195.863C390.536 195.701 390.65 195.477 390.675 195.236C390.689 195.099 390.674 194.961 390.631 194.831C390.589 194.7 390.519 194.58 390.427 194.478C390.335 194.377 390.223 194.295 390.097 194.239C389.972 194.184 389.836 194.155 389.699 194.155C389.562 194.155 389.426 194.184 389.301 194.239C389.175 194.295 389.063 194.377 388.971 194.478C388.879 194.58 388.81 194.7 388.767 194.831C388.724 194.961 388.71 195.099 388.724 195.236V195.236Z" fill="white"/>
<path opacity="0.6" d="M388.724 206.394C388.749 206.635 388.862 206.859 389.042 207.022C389.222 207.184 389.456 207.274 389.699 207.274C389.942 207.274 390.176 207.184 390.356 207.022C390.536 206.859 390.65 206.635 390.675 206.394C390.689 206.258 390.674 206.12 390.631 205.989C390.589 205.859 390.519 205.739 390.427 205.637C390.335 205.535 390.223 205.453 390.097 205.398C389.972 205.342 389.836 205.313 389.699 205.313C389.562 205.313 389.426 205.342 389.301 205.398C389.175 205.453 389.063 205.535 388.971 205.637C388.879 205.739 388.81 205.859 388.767 205.989C388.724 206.12 388.71 206.258 388.724 206.394V206.394Z" fill="white"/>
<path d="M422.456 165.901C428.877 169.431 452.153 196.186 450.326 204.144C448.499 212.102 422.456 224.561 422.456 224.561L417.987 216.85C417.987 216.85 435.039 204.144 435.854 202.1C436.67 200.056 417.089 184.656 417.089 184.656C416.841 180.569 416.962 176.468 417.45 172.403C417.658 170.982 418.227 169.637 419.104 168.498C419.981 167.36 421.135 166.465 422.456 165.901V165.901Z" fill="#CC9921"/>
<path d="M410.4 171.268C410.4 171.268 416.934 160.595 402.638 156.91C388.342 153.225 383.986 161.813 383.986 161.813L391.108 160.585L392.006 177.606C395.299 171.714 400.656 167.25 407.045 165.075L410.4 171.268Z" fill="#CC9921"/>
<path d="M394.163 169.234C398.955 166.996 403.547 164.354 407.892 161.338C404.537 158.179 405.146 153.514 406.003 150.603C406.269 149.68 406.614 148.783 407.035 147.919L397.157 149.767C397.384 151.132 397.512 152.512 397.538 153.896C397.575 154.936 397.482 155.976 397.26 156.992C396.589 159.945 394.906 159.986 394.906 159.986C393.152 163.217 394.163 169.234 394.163 169.234Z" fill="white"/>
<path opacity="0.2" d="M397.518 153.927C397.555 154.967 397.461 156.007 397.239 157.023C401.162 156.507 404.135 153.369 406.003 150.644C406.269 149.722 406.614 148.824 407.035 147.961L397.157 149.808C397.377 151.171 397.498 152.547 397.518 153.927V153.927Z" fill="black"/>
<path d="M399.479 121.959C388.837 121.959 387.949 127.12 387.34 135.966C386.577 147.032 389.044 154.897 399.789 152.482C414.374 149.261 413.755 121.959 399.479 121.959Z" fill="white"/>
<path d="M392.853 135.471C392.167 136.758 391.328 137.957 390.355 139.042C390.608 139.396 390.954 139.673 391.355 139.844C391.755 140.015 392.194 140.074 392.625 140.013L392.853 135.471Z" fill="#263238"/>
<path d="M398.148 134.759C398.148 135.461 398.509 136.039 398.973 136.049C399.438 136.059 399.841 135.502 399.851 134.79C399.861 134.077 399.5 133.51 399.035 133.499C398.571 133.489 398.168 134.046 398.148 134.759Z" fill="#263238"/>
<path d="M400.078 132.178L398.561 131.549C398.561 131.549 399.294 132.859 400.078 132.178Z" fill="#263238"/>
<path d="M389.374 134.428C389.374 135.13 389.735 135.708 390.2 135.719C390.664 135.729 391.067 135.161 391.077 134.459C391.087 133.758 390.726 133.169 390.251 133.159C389.776 133.149 389.394 133.716 389.374 134.428Z" fill="#263238"/>
<path d="M391.479 132.168L389.962 131.538C389.962 131.538 390.695 132.839 391.479 132.168Z" fill="#263238"/>
<path d="M398.22 128.824C398.9 128.739 399.59 128.812 400.238 129.035C400.886 129.259 401.473 129.628 401.957 130.114" stroke="#263238" stroke-width="0.707962" stroke-linecap="round" stroke-linejoin="round"/>
<path d="M391.975 128.452C391.387 128.305 390.774 128.293 390.18 128.416C389.587 128.539 389.029 128.795 388.548 129.164" stroke="#263238" stroke-width="0.707962" stroke-linecap="round" stroke-linejoin="round"/>
<path d="M408.728 136.947C408.728 136.947 404.692 129.887 405.29 124.437C405.29 124.437 399.221 118.181 391.056 124.364C391.056 124.364 387.65 130.238 387.433 134.81C387.433 134.81 385.74 119.461 400.511 119.079C415.282 118.698 415.272 140.322 407.654 146.784C407.654 146.784 411.226 141.355 408.728 136.947Z" fill="#2153CC"/>
<path d="M407.303 138.774C407.342 138.281 407.478 137.8 407.703 137.359C407.928 136.918 408.238 136.526 408.615 136.205C408.992 135.883 409.428 135.64 409.899 135.487C410.37 135.335 410.866 135.277 411.36 135.316C414.023 135.605 415.303 141.066 408.676 142.397C407.747 142.573 407.21 141.654 407.303 138.774Z" fill="white"/>
<path d="M393.833 144.668C393.833 144.668 397.435 145.483 398.922 142.263" stroke="#263238" stroke-width="0.707962" stroke-linecap="round" stroke-linejoin="round"/>
<path d="M405.239 124.437C405.239 124.437 395.412 120.081 388.91 125.83C388.91 125.83 386.36 118.254 395.103 115.673C403.846 113.093 412.65 121.794 412.65 121.794L405.239 124.437Z" fill="#2153CC"/>
<path d="M405.239 124.437C405.239 124.437 410.968 130.093 410.142 141.365C409.316 152.637 410.4 159.749 412.64 166.799C414.88 173.849 409.017 175.954 409.017 175.954C409.017 175.954 415.695 177.606 417.068 170.453C417.977 165.766 415.83 155.609 416.903 143.512C417.977 131.414 413.724 122.857 405.239 124.437Z" fill="#2153CC"/>
<path d="M245.814 99.323C247.692 99.323 249.528 99.88 251.09 100.923C252.652 101.967 253.869 103.45 254.588 105.185C255.306 106.92 255.494 108.83 255.128 110.672C254.762 112.514 253.857 114.206 252.529 115.534C251.201 116.862 249.509 117.767 247.667 118.133C245.825 118.5 243.915 118.312 242.18 117.593C240.445 116.874 238.962 115.657 237.918 114.095C236.875 112.534 236.318 110.698 236.318 108.819C236.318 106.301 237.318 103.885 239.099 102.104C240.88 100.324 243.296 99.323 245.814 99.323ZM245.814 107.901C246.359 107.901 246.892 107.739 247.345 107.436C247.799 107.133 248.152 106.703 248.36 106.199C248.569 105.696 248.624 105.142 248.517 104.607C248.411 104.072 248.148 103.581 247.763 103.196C247.378 102.81 246.886 102.548 246.352 102.442C245.817 102.335 245.263 102.39 244.76 102.598C244.256 102.807 243.826 103.16 243.523 103.614C243.22 104.067 243.058 104.6 243.058 105.145C243.058 105.507 243.13 105.865 243.268 106.199C243.407 106.534 243.609 106.838 243.865 107.093C244.121 107.349 244.425 107.552 244.76 107.691C245.094 107.829 245.452 107.901 245.814 107.901Z" fill="#407BFF"/>
<path opacity="0.6" d="M245.814 99.323C247.692 99.323 249.528 99.88 251.09 100.923C252.652 101.967 253.869 103.45 254.588 105.185C255.306 106.92 255.494 108.83 255.128 110.672C254.762 112.514 253.857 114.206 252.529 115.534C251.201 116.862 249.509 117.767 247.667 118.133C245.825 118.5 243.915 118.312 242.18 117.593C240.445 116.874 238.962 115.657 237.918 114.095C236.875 112.534 236.318 110.698 236.318 108.819C236.318 106.301 237.318 103.885 239.099 102.104C240.88 100.324 243.296 99.323 245.814 99.323ZM245.814 107.901C246.359 107.901 246.892 107.739 247.345 107.436C247.799 107.133 248.152 106.703 248.36 106.199C248.569 105.696 248.624 105.142 248.517 104.607C248.411 104.072 248.148 103.581 247.763 103.196C247.378 102.81 246.886 102.548 246.352 102.442C245.817 102.335 245.263 102.39 244.76 102.598C244.256 102.807 243.826 103.16 243.523 103.614C243.22 104.067 243.058 104.6 243.058 105.145C243.058 105.507 243.13 105.865 243.268 106.199C243.407 106.534 243.609 106.838 243.865 107.093C244.121 107.349 244.425 107.552 244.76 107.691C245.094 107.829 245.452 107.901 245.814 107.901Z" fill="white"/>
<path d="M151.334 112H339.269C343.539 112 347 115.461 347 119.731V399.79C347 404.06 343.539 407.522 339.269 407.522H151.334C147.065 407.522 143.603 404.06 143.603 399.79V119.731C143.603 115.461 147.065 112 151.334 112Z" fill="#2153CC"/>
<rect x="154" y="126" width="184" height="267" rx="2" fill="white"/>
<path d="M197.445 109.273H294.184C295.284 109.273 296.176 110.165 296.176 111.266V123.673C296.176 124.773 295.284 125.665 294.184 125.665H197.445C196.345 125.665 195.453 124.773 195.453 123.673V111.266C195.453 110.165 196.345 109.273 197.445 109.273Z" fill="#407BFF"/>
<path opacity="0.4" d="M197.445 109.273H294.184C295.284 109.273 296.176 110.165 296.176 111.266V123.673C296.176 124.773 295.284 125.665 294.184 125.665H197.445C196.345 125.665 195.453 124.773 195.453 123.673V111.266C195.453 110.165 196.345 109.273 197.445 109.273Z" fill="white"/>
<path d="M208.583 140.89H237.732C238.326 140.9 238.911 140.748 239.424 140.45C239.937 140.151 240.359 139.718 240.643 139.197C241.143 138.263 241.887 137.482 242.796 136.937C243.705 136.392 244.745 136.104 245.804 136.104C246.864 136.104 247.904 136.392 248.813 136.937C249.722 137.482 250.466 138.263 250.965 139.197C251.251 139.717 251.672 140.15 252.185 140.448C252.698 140.747 253.283 140.899 253.876 140.89H283.057C283.878 140.89 284.666 140.564 285.246 139.983C285.827 139.402 286.153 138.615 286.153 137.793V120.401C286.153 119.579 285.827 118.792 285.246 118.211C284.666 117.63 283.878 117.304 283.057 117.304H208.583C207.762 117.304 206.974 117.63 206.393 118.211C205.812 118.792 205.486 119.579 205.486 120.401V137.742C205.479 138.153 205.554 138.561 205.707 138.943C205.859 139.324 206.086 139.672 206.375 139.965C206.663 140.258 207.007 140.491 207.386 140.65C207.765 140.808 208.172 140.89 208.583 140.89ZM245.815 134.026C244.378 134.023 242.967 134.413 241.735 135.153C240.504 135.894 239.498 136.956 238.827 138.227C238.714 138.415 238.553 138.57 238.361 138.676C238.169 138.781 237.952 138.833 237.732 138.826H208.583C208.309 138.826 208.046 138.717 207.853 138.523C207.659 138.33 207.551 138.067 207.551 137.793V120.401C207.551 120.127 207.659 119.864 207.853 119.671C208.046 119.477 208.309 119.368 208.583 119.368H283.057C283.33 119.368 283.593 119.477 283.787 119.671C283.98 119.864 284.089 120.127 284.089 120.401V137.742C284.089 138.016 283.98 138.278 283.787 138.472C283.593 138.665 283.33 138.774 283.057 138.774H253.886C253.669 138.78 253.453 138.728 253.263 138.623C253.072 138.517 252.913 138.363 252.803 138.175C252.123 136.915 251.114 135.863 249.883 135.133C248.653 134.402 247.246 134.019 245.815 134.026V134.026Z" fill="#263238"/>
<path opacity="0.2" d="M208.582 140.89H237.732C238.325 140.901 238.91 140.748 239.423 140.45C239.937 140.152 240.358 139.718 240.643 139.197C241.142 138.263 241.886 137.482 242.795 136.937C243.704 136.392 244.744 136.105 245.804 136.105C246.863 136.105 247.903 136.392 248.812 136.937C249.721 137.482 250.465 138.263 250.965 139.197C251.25 139.718 251.672 140.15 252.185 140.448C252.698 140.747 253.282 140.899 253.876 140.89H283.056C283.877 140.89 284.665 140.564 285.246 139.983C285.827 139.402 286.153 138.615 286.153 137.794V120.401C286.153 119.58 285.827 118.792 285.246 118.211C284.665 117.63 283.877 117.304 283.056 117.304H208.582C207.761 117.304 206.973 117.63 206.393 118.211C205.812 118.792 205.486 119.58 205.486 120.401V137.742C205.479 138.153 205.554 138.561 205.706 138.943C205.859 139.324 206.086 139.672 206.374 139.965C206.662 140.258 207.006 140.491 207.385 140.65C207.764 140.808 208.171 140.89 208.582 140.89ZM245.814 134.026C244.377 134.023 242.967 134.413 241.735 135.153C240.503 135.894 239.498 136.957 238.826 138.227C238.714 138.415 238.553 138.57 238.361 138.676C238.168 138.781 237.951 138.833 237.732 138.826H208.582C208.309 138.826 208.046 138.717 207.852 138.523C207.659 138.33 207.55 138.067 207.55 137.794V120.401C207.55 120.127 207.659 119.865 207.852 119.671C208.046 119.477 208.309 119.369 208.582 119.369H283.056C283.33 119.369 283.593 119.477 283.786 119.671C283.98 119.865 284.088 120.127 284.088 120.401V137.742C284.088 138.016 283.98 138.278 283.786 138.472C283.593 138.665 283.33 138.774 283.056 138.774H253.886C253.668 138.78 253.453 138.728 253.262 138.623C253.072 138.518 252.913 138.363 252.802 138.175C252.123 136.915 251.114 135.864 249.883 135.133C248.652 134.402 247.246 134.019 245.814 134.026V134.026Z" fill="white"/>
<path d="M213.001 114.28H278.598C279.259 114.28 279.795 114.816 279.795 115.477V120.122C279.795 120.783 279.259 121.319 278.598 121.319H213.001C212.339 121.319 211.803 120.783 211.803 120.122V115.477C211.803 114.816 212.339 114.28 213.001 114.28Z" fill="#407BFF"/>
<path opacity="0.6" d="M213.031 114.28H278.628C279.29 114.28 279.826 114.816 279.826 115.477V120.122C279.826 120.783 279.29 121.319 278.628 121.319H213.031C212.37 121.319 211.834 120.783 211.834 120.122V115.477C211.834 114.816 212.37 114.28 213.031 114.28Z" fill="white"/>
<path opacity="0.3" d="M228.928 273.312H247.301V291.686H228.928V273.312Z" fill="black"/>
<path opacity="0.3" d="M231.075 299.076H245.154C245.724 299.076 246.27 298.85 246.672 298.447C247.075 298.045 247.301 297.499 247.301 296.929V296.929C247.299 296.362 247.071 295.818 246.669 295.418C246.266 295.017 245.722 294.792 245.154 294.792H231.075C230.507 294.792 229.963 295.017 229.56 295.418C229.158 295.818 228.931 296.362 228.928 296.929V296.929C228.928 297.499 229.154 298.045 229.557 298.447C229.959 298.85 230.505 299.076 231.075 299.076V299.076Z" fill="black"/>
<path opacity="0.3" d="M171.949 273.312H219.204C220.287 273.312 221.165 274.19 221.165 275.273V275.284C221.165 276.367 220.287 277.245 219.204 277.245H171.949C170.866 277.245 169.988 276.367 169.988 275.284V275.273C169.988 274.19 170.866 273.312 171.949 273.312Z" fill="black"/>
<path opacity="0.3" d="M182.271 283.634H219.204C220.287 283.634 221.165 284.512 221.165 285.596V285.606C221.165 286.689 220.287 287.567 219.204 287.567H182.271C181.188 287.567 180.31 286.689 180.31 285.606V285.596C180.31 284.512 181.188 283.634 182.271 283.634Z" fill="black"/>
<path opacity="0.3" d="M171.949 293.956H219.204C220.287 293.956 221.165 294.834 221.165 295.918V295.928C221.165 297.011 220.287 297.889 219.204 297.889H171.949C170.866 297.889 169.988 297.011 169.988 295.928V295.918C169.988 294.834 170.866 293.956 171.949 293.956Z" fill="black"/>
<path opacity="0.3" d="M198.787 304.279H219.204C220.287 304.279 221.165 305.157 221.165 306.24V306.25C221.165 307.333 220.287 308.211 219.204 308.211H198.787C197.704 308.211 196.826 307.333 196.826 306.25V306.24C196.826 305.157 197.704 304.279 198.787 304.279Z" fill="black"/>
<path opacity="0.3" d="M191.51 156.187H300.635C301.579 156.185 302.483 155.809 303.15 155.141C303.818 154.474 304.194 153.57 304.196 152.626V152.626C304.196 151.682 303.821 150.776 303.153 150.108C302.485 149.44 301.58 149.065 300.635 149.065H191.51C190.566 149.065 189.66 149.44 188.992 150.108C188.324 150.776 187.949 151.682 187.949 152.626V152.626C187.952 153.57 188.328 154.474 188.995 155.141C189.662 155.809 190.566 156.185 191.51 156.187V156.187Z" fill="black"/>
<path opacity="0.3" d="M173.312 177.265H245.34C245.861 177.262 246.36 177.053 246.727 176.684C247.095 176.314 247.301 175.815 247.301 175.293V175.293C247.301 174.773 247.095 174.275 246.727 173.907C246.359 173.539 245.86 173.332 245.34 173.332H173.312C172.792 173.332 172.293 173.539 171.926 173.907C171.558 174.275 171.351 174.773 171.351 175.293V175.293C171.351 175.815 171.558 176.314 171.925 176.684C172.293 177.053 172.791 177.262 173.312 177.265V177.265Z" fill="black"/>
<path opacity="0.3" d="M183.635 187.587H245.34C245.861 187.584 246.36 187.375 246.727 187.006C247.095 186.637 247.301 186.137 247.301 185.616V185.616C247.301 185.095 247.095 184.597 246.727 184.229C246.359 183.861 245.86 183.654 245.34 183.654H183.635C183.114 183.654 182.616 183.861 182.248 184.229C181.88 184.597 181.673 185.095 181.673 185.616V185.616C181.673 186.137 181.88 186.637 182.247 187.006C182.615 187.375 183.114 187.584 183.635 187.587V187.587Z" fill="black"/>
<path opacity="0.3" d="M173.312 197.909H245.34C245.861 197.907 246.36 197.698 246.727 197.328C247.095 196.959 247.301 196.459 247.301 195.938V195.938C247.301 195.418 247.095 194.919 246.727 194.551C246.359 194.183 245.86 193.977 245.34 193.977H173.312C172.792 193.977 172.293 194.183 171.926 194.551C171.558 194.919 171.351 195.418 171.351 195.938V195.938C171.351 196.459 171.558 196.959 171.925 197.328C172.293 197.698 172.791 197.907 173.312 197.909Z" fill="black"/>
<path opacity="0.3" d="M193.957 208.231H245.34C245.861 208.229 246.36 208.02 246.727 207.65C247.095 207.281 247.301 206.781 247.301 206.26V206.26C247.301 205.74 247.095 205.241 246.727 204.873C246.359 204.505 245.86 204.299 245.34 204.299H193.957C193.437 204.299 192.938 204.505 192.57 204.873C192.202 205.241 191.995 205.74 191.995 206.26C191.995 206.781 192.202 207.281 192.569 207.65C192.937 208.02 193.436 208.229 193.957 208.231V208.231Z" fill="black"/>
<path opacity="0.3" d="M242.15 220.535L241.015 222.827L238.475 223.198L240.313 224.984L239.879 227.513L242.15 226.316L244.411 227.513L243.977 224.984L245.814 223.198L243.286 222.827L242.15 220.535Z" fill="black"/>
<path opacity="0.3" d="M229.33 220.535L228.195 222.827L225.666 223.198L227.503 224.984L227.07 227.513L229.33 226.316L231.601 227.513L231.168 224.984L233.005 223.198L230.466 222.827L229.33 220.535Z" fill="black"/>
<path opacity="0.3" d="M216.521 220.535L215.385 222.827L212.846 223.198L214.683 224.984L214.25 227.513L216.521 226.316L218.792 227.513L218.358 224.984L220.185 223.198L217.656 222.827L216.521 220.535Z" fill="black"/>
<path opacity="0.3" d="M203.7 220.535L202.575 222.827L200.036 223.198L201.873 224.984L201.44 227.513L203.7 226.316L205.971 227.513L205.538 224.984L207.375 223.198L204.836 222.827L203.7 220.535Z" fill="black"/>
<path opacity="0.3" d="M190.891 220.535L189.755 222.827L187.227 223.198L189.053 224.984L188.62 227.513L190.891 226.316L193.162 227.513L192.728 224.984L194.555 223.198L192.026 222.827L190.891 220.535Z" fill="black"/>
<path opacity="0.3" d="M242.15 233.686L241.015 235.977L238.475 236.349L240.313 238.135L239.879 240.664L242.15 239.466L244.411 240.664L243.977 238.135L245.814 236.349L243.286 235.977L242.15 233.686Z" fill="black"/>
<path opacity="0.3" d="M229.33 233.686L228.195 235.977L225.666 236.349L227.503 238.135L227.07 240.664L229.33 239.466L231.601 240.664L231.168 238.135L233.005 236.349L230.466 235.977L229.33 233.686Z" fill="black"/>
<path opacity="0.3" d="M216.521 233.686L215.385 235.977L212.846 236.349L214.683 238.135L214.25 240.664L216.521 239.466L218.792 240.664L218.358 238.135L220.185 236.349L217.656 235.977L216.521 233.686Z" fill="black"/>
<path opacity="0.1" d="M203.7 233.686L202.575 235.977L200.036 236.349L201.873 238.135L201.44 240.664L203.7 239.466L205.971 240.664L205.538 238.135L207.375 236.349L204.836 235.977L203.7 233.686Z" fill="black"/>
<path opacity="0.1" d="M190.891 233.686L189.755 235.977L187.227 236.349L189.053 238.135L188.62 240.664L190.891 239.466L193.162 240.664L192.728 238.135L194.555 236.349L192.026 235.977L190.891 233.686Z" fill="black"/>
<path opacity="0.3" d="M242.15 246.836L241.015 249.128L238.475 249.499L240.313 251.285L239.879 253.814L242.15 252.616L244.411 253.814L243.977 251.285L245.814 249.499L243.286 249.128L242.15 246.836Z" fill="black"/>
<path opacity="0.3" d="M229.33 246.836L228.195 249.128L225.666 249.499L227.503 251.285L227.07 253.814L229.33 252.616L231.601 253.814L231.168 251.285L233.005 249.499L230.466 249.128L229.33 246.836Z" fill="black"/>
<path opacity="0.3" d="M216.521 246.836L215.385 249.128L212.846 249.499L214.683 251.285L214.25 253.814L216.521 252.616L218.792 253.814L218.358 251.285L220.185 249.499L217.656 249.128L216.521 246.836Z" fill="black"/>
<path opacity="0.3" d="M203.7 246.836L202.575 249.128L200.036 249.499L201.873 251.285L201.44 253.814L203.7 252.616L205.971 253.814L205.538 251.285L207.375 249.499L204.836 249.128L203.7 246.836Z" fill="black"/>
<path opacity="0.1" d="M190.891 246.836L189.755 249.128L187.227 249.499L189.053 251.285L188.62 253.814L190.891 252.616L193.162 253.814L192.728 251.285L194.555 249.499L192.026 249.128L190.891 246.836Z" fill="black"/>
<path opacity="0.3" d="M228.928 324.923H247.301V343.296H228.928V324.923Z" fill="black"/>
<path opacity="0.3" d="M231.075 350.687H245.154C245.724 350.687 246.27 350.46 246.672 350.058C247.075 349.655 247.301 349.109 247.301 348.54V348.54C247.299 347.972 247.071 347.429 246.669 347.028C246.266 346.628 245.722 346.403 245.154 346.403H231.075C230.507 346.403 229.963 346.628 229.56 347.028C229.158 347.429 228.931 347.972 228.928 348.54V348.54C228.928 349.109 229.154 349.655 229.557 350.058C229.959 350.46 230.505 350.687 231.075 350.687V350.687Z" fill="black"/>
<path opacity="0.3" d="M171.949 324.923H219.204C220.287 324.923 221.165 325.801 221.165 326.884V326.894C221.165 327.977 220.287 328.856 219.204 328.856H171.949C170.866 328.856 169.988 327.977 169.988 326.894V326.884C169.988 325.801 170.866 324.923 171.949 324.923Z" fill="black"/>
<path opacity="0.3" d="M182.271 335.245H219.204C220.287 335.245 221.165 336.123 221.165 337.206V337.216C221.165 338.3 220.287 339.178 219.204 339.178H182.271C181.188 339.178 180.31 338.3 180.31 337.216V337.206C180.31 336.123 181.188 335.245 182.271 335.245Z" fill="black"/>
<path opacity="0.3" d="M171.949 345.567H219.204C220.287 345.567 221.165 346.445 221.165 347.528V347.539C221.165 348.622 220.287 349.5 219.204 349.5H171.949C170.866 349.5 169.988 348.622 169.988 347.539V347.528C169.988 346.445 170.866 345.567 171.949 345.567Z" fill="black"/>
<path opacity="0.3" d="M198.787 355.889H219.204C220.287 355.889 221.165 356.767 221.165 357.85V357.861C221.165 358.944 220.287 359.822 219.204 359.822H198.787C197.704 359.822 196.826 358.944 196.826 357.861V357.85C196.826 356.767 197.704 355.889 198.787 355.889Z" fill="black"/>
<path d="M259.027 173.332H325.274V261.297H259.027V173.332Z" fill="white"/>
<path d="M262.124 176.429H322.178V258.201H262.124V176.429Z" fill="#263238"/>
<path d="M262.124 239.931V258.201H266.789C268.08 256.971 269.503 255.887 271.032 254.97C271.769 254.526 272.56 254.179 273.385 253.938C280.394 252.038 270.289 233.293 270.289 233.293C267.956 234.037 265.055 236.679 262.124 239.931Z" fill="#CC9921"/>
<path opacity="0.2" d="M262.123 258.139V258.201H266.789C268.08 256.971 269.502 255.887 271.031 254.97L269.648 246.33C268.299 247.45 267.102 248.741 266.087 250.17V250.17C264.322 252.582 262.982 255.277 262.123 258.139Z" fill="black"/>
<path d="M274.985 232.54C275.13 233.283 275.274 234.037 275.439 234.78C275.604 235.523 275.832 236.545 276.048 237.422C278.299 246.475 282.015 254.402 287.341 258.201H305.549C310.844 255.507 311.856 250.975 311.68 246.227C311.567 243.017 310.906 239.745 310.648 236.937C310.566 235.969 310.566 234.995 310.648 234.026C310.782 232.561 311.061 230.796 311.402 228.865C312.981 219.875 316.067 206.9 314.498 200.242C312.63 192.15 306.726 189.92 306.726 189.92C306.726 189.92 304.723 189.786 301.647 189.806C299.376 189.806 296.486 189.92 293.462 190.209H293.245C289.853 190.514 286.493 191.108 283.202 191.984L282.448 192.201C281.798 192.397 281.147 192.604 280.518 192.831C280.105 192.975 279.702 193.13 279.3 193.295C278.778 193.517 278.307 193.844 277.917 194.255C273.241 199.055 272.085 216.654 274.985 232.54Z" fill="#1C47B1"/>
<path d="M280.424 194.297C273.87 191.2 271.042 212.577 273.385 228.009" stroke="#2153CC" stroke-width="0.5" stroke-linecap="round" stroke-linejoin="round"/>
<path d="M265.591 258.201H312.701C312.898 257.313 313.094 256.425 313.3 255.548C314.463 250.411 316.006 245.367 317.914 240.457V240.457C315.984 239.31 313.969 238.313 311.886 237.474C311.494 237.298 311.091 237.133 310.658 236.968C309.027 236.318 307.127 235.647 305.001 235.007L304.32 234.811C302.72 234.346 300.996 233.913 299.159 233.531C295.324 232.726 291.43 232.236 287.515 232.065C287.515 232.065 287.515 232.065 287.515 232.065C284.536 231.925 281.55 231.973 278.577 232.21V232.21C277.41 232.292 276.223 232.406 275.015 232.561C273.498 232.746 271.919 232.984 270.36 233.283C270.185 233.562 267.315 238.124 266.128 250.18C265.839 252.554 265.664 255.218 265.591 258.201Z" fill="#CC9921"/>
<path d="M304.733 244.204C304.733 244.204 310.121 230.93 293.296 229.433C276.471 227.936 273.116 238.423 273.116 238.423L280.93 235.719L285.059 254.763C287.712 247.501 292.964 241.48 299.799 237.866L304.733 244.204Z" fill="#CC9921"/>
<path d="M285.761 246.33C290.094 241.836 295.014 237.947 300.387 234.769C296.362 231.363 296.774 225.996 297.58 222.62C297.835 221.561 298.181 220.525 298.612 219.524L287.433 222.228C287.778 223.785 288.009 225.365 288.125 226.956C288.221 228.127 288.176 229.305 287.99 230.465C287.402 233.882 285.482 234.026 285.482 234.026C283.655 237.866 285.761 246.33 285.761 246.33Z" fill="white"/>
<path opacity="0.2" d="M288.084 226.945C288.18 228.116 288.135 229.295 287.95 230.455C292.398 229.629 295.609 225.862 297.58 222.641C297.836 221.582 298.181 220.546 298.612 219.544L287.433 222.249C287.763 223.797 287.98 225.366 288.084 226.945V226.945Z" fill="black"/>
<path d="M291.624 190.157C279.454 190.157 278.432 196.041 277.73 206.177C276.863 218.853 279.692 227.854 291.985 225.108C308.676 221.402 307.964 190.157 291.624 190.157Z" fill="white"/>
<path d="M284.089 205.62C283.308 207.105 282.351 208.491 281.24 209.749C281.526 210.157 281.92 210.477 282.377 210.674C282.835 210.871 283.338 210.936 283.831 210.864L284.089 205.62Z" fill="#263238"/>
<path d="M290.107 204.835C290.107 205.651 290.509 206.311 291.056 206.322C291.603 206.332 292.088 205.692 292.088 204.877C292.088 204.061 291.686 203.411 291.149 203.401C290.612 203.39 290.127 203.989 290.107 204.835Z" fill="#263238"/>
<path d="M292.367 202.368L290.623 201.636C290.623 201.636 291.469 203.132 292.367 202.368Z" fill="#263238"/>
<path d="M280.063 204.412C280.063 205.228 280.466 205.888 281.013 205.899C281.56 205.909 282.045 205.269 282.045 204.454C282.045 203.638 281.642 202.988 281.106 202.978C280.569 202.967 280.084 203.607 280.063 204.412Z" fill="#263238"/>
<path d="M282.324 201.987L280.59 201.264C280.59 201.264 281.374 202.771 282.324 201.987Z" fill="#263238"/>
<path d="M290.19 198.002C290.19 198.002 292.956 197.641 294.463 199.478" stroke="#263238" stroke-width="0.707962" stroke-linecap="round" stroke-linejoin="round"/>
<path d="M283.036 197.61C282.364 197.441 281.663 197.426 280.986 197.568C280.308 197.709 279.671 198.002 279.124 198.425" stroke="#263238" stroke-width="0.707962" stroke-linecap="round" stroke-linejoin="round"/>
<path d="M302.205 207.303C302.205 207.303 297.591 199.231 298.272 192.986C298.272 192.986 291.335 185.833 281.994 192.903C281.994 192.903 278.082 199.633 277.865 204.856C277.865 204.856 275.924 187.309 292.832 186.865C309.74 186.421 309.698 211.173 300.987 218.564C300.987 218.564 305.064 212.35 302.205 207.303Z" fill="#2153CC"/>
<path d="M300.604 209.377C300.699 208.24 301.239 207.187 302.108 206.446C302.976 205.706 304.101 205.338 305.239 205.424C308.336 205.754 309.76 212.009 302.142 213.527C301.089 213.743 300.47 212.68 300.604 209.377Z" fill="white"/>
<path d="M285.163 216.19C285.163 216.19 289.291 217.119 290.995 213.434" stroke="#263238" stroke-width="0.707962" stroke-linecap="round" stroke-linejoin="round"/>
<path d="M298.272 192.986C298.272 192.986 287.031 188 279.589 194.586C279.589 194.586 276.668 185.915 286.639 182.953C296.61 179.99 306.746 189.961 306.746 189.961L298.272 192.986Z" fill="#2153CC"/>
<path d="M298.271 192.986C298.271 192.986 304.836 199.458 303.887 212.35C302.937 225.242 304.186 233.397 306.746 241.469C309.306 249.54 302.617 251.946 302.617 251.946C302.617 251.946 310.255 253.824 311.824 245.649C312.856 240.282 310.4 228.659 311.638 214.817C312.877 200.975 307.933 191.179 298.271 192.986Z" fill="#2153CC"/>
<path opacity="0.2" d="M310.524 258.201H312.702C312.898 257.313 313.094 256.425 313.301 255.548L311.66 254.113C311.196 255.45 310.817 256.816 310.524 258.201Z" fill="black"/>
<path d="M311.649 258.201H322.178V243.75C320.876 242.517 319.451 241.42 317.925 240.478C316.411 241.118 315.087 242.138 314.083 243.44C313.08 244.743 312.43 246.282 312.196 247.91C311.892 249.961 311.716 252.029 311.67 254.103C311.618 255.579 311.628 256.993 311.649 258.201Z" fill="#CC9921"/>
<path opacity="0.3" d="M259.027 271.547H325.274V359.388H259.027V271.547Z" fill="black"/>
<path opacity="0.3" d="M270.164 285.162H315.344C315.865 285.159 316.364 284.95 316.731 284.581C317.099 284.211 317.305 283.712 317.305 283.19C317.305 282.67 317.099 282.171 316.731 281.804C316.363 281.436 315.864 281.229 315.344 281.229H270.164C269.906 281.228 269.65 281.278 269.411 281.376C269.171 281.474 268.954 281.618 268.771 281.8C268.588 281.982 268.442 282.199 268.343 282.438C268.244 282.676 268.193 282.932 268.193 283.19V283.19C268.193 283.449 268.244 283.706 268.343 283.945C268.442 284.184 268.587 284.401 268.77 284.585C268.953 284.768 269.171 284.913 269.41 285.012C269.649 285.111 269.905 285.162 270.164 285.162V285.162Z" fill="white"/>
<path opacity="0.3" d="M270.154 292.212H315.344C316.427 292.212 317.305 293.09 317.305 294.173V294.184C317.305 295.267 316.427 296.145 315.344 296.145H270.154C269.071 296.145 268.193 295.267 268.193 294.184V294.173C268.193 293.09 269.071 292.212 270.154 292.212Z" fill="white"/>
<path opacity="0.3" d="M290.808 307.138H315.344C315.865 307.135 316.364 306.926 316.731 306.557C317.099 306.187 317.305 305.687 317.305 305.166C317.305 304.646 317.099 304.147 316.731 303.779C316.363 303.412 315.864 303.205 315.344 303.205H290.808C290.55 303.204 290.294 303.253 290.055 303.351C289.816 303.449 289.598 303.593 289.415 303.776C289.232 303.958 289.086 304.175 288.987 304.413C288.888 304.652 288.837 304.908 288.837 305.166C288.837 305.689 289.045 306.191 289.414 306.56C289.784 306.93 290.286 307.138 290.808 307.138V307.138Z" fill="white"/>
<path opacity="0.3" d="M270.164 318.12H315.344C315.864 318.12 316.363 317.914 316.731 317.546C317.099 317.178 317.305 316.679 317.305 316.159C317.305 315.638 317.099 315.138 316.731 314.769C316.364 314.399 315.865 314.19 315.344 314.188H270.164C269.641 314.188 269.14 314.395 268.77 314.765C268.4 315.135 268.193 315.636 268.193 316.159V316.159C268.193 316.418 268.244 316.674 268.343 316.912C268.442 317.151 268.588 317.367 268.771 317.55C268.954 317.732 269.171 317.876 269.411 317.974C269.65 318.072 269.906 318.122 270.164 318.12V318.12Z" fill="white"/>
<path opacity="0.3" d="M270.164 329.103H315.344C315.864 329.103 316.363 328.896 316.731 328.529C317.099 328.161 317.305 327.662 317.305 327.142C317.305 326.622 317.099 326.123 316.731 325.755C316.363 325.387 315.864 325.181 315.344 325.181H270.164C269.906 325.179 269.65 325.229 269.411 325.327C269.171 325.425 268.954 325.569 268.771 325.751C268.588 325.934 268.442 326.15 268.343 326.389C268.244 326.628 268.193 326.883 268.193 327.142V327.142C268.193 327.4 268.244 327.656 268.343 327.895C268.442 328.133 268.588 328.35 268.771 328.532C268.954 328.715 269.171 328.859 269.411 328.957C269.65 329.055 269.906 329.104 270.164 329.103V329.103Z" fill="white"/>
<path opacity="0.3" d="M301.13 340.055H315.344C315.864 340.055 316.363 339.848 316.731 339.48C317.099 339.113 317.305 338.614 317.305 338.094C317.307 337.835 317.257 337.579 317.159 337.34C317.061 337.101 316.917 336.883 316.734 336.7C316.552 336.517 316.335 336.372 316.097 336.272C315.858 336.173 315.602 336.122 315.344 336.122H301.13C300.871 336.121 300.614 336.171 300.374 336.269C300.135 336.368 299.917 336.513 299.733 336.696C299.55 336.88 299.405 337.098 299.306 337.338C299.208 337.577 299.158 337.834 299.159 338.094V338.094C299.159 338.352 299.21 338.608 299.309 338.847C299.408 339.085 299.554 339.302 299.737 339.484C299.92 339.666 300.138 339.811 300.377 339.909C300.616 340.007 300.872 340.056 301.13 340.055V340.055Z" fill="white"/>
<path opacity="0.3" d="M280.486 351.079H315.344C315.864 351.079 316.363 350.872 316.731 350.504C317.099 350.137 317.305 349.638 317.305 349.118C317.305 348.598 317.099 348.099 316.731 347.731C316.363 347.363 315.864 347.157 315.344 347.157H280.486C280.228 347.155 279.972 347.205 279.733 347.303C279.493 347.401 279.276 347.545 279.093 347.727C278.91 347.91 278.764 348.126 278.665 348.365C278.566 348.603 278.515 348.859 278.515 349.118V349.118C278.515 349.376 278.566 349.632 278.665 349.871C278.764 350.109 278.91 350.326 279.093 350.508C279.276 350.69 279.493 350.835 279.733 350.933C279.972 351.03 280.228 351.08 280.486 351.079V351.079Z" fill="white"/>
<path d="M100.191 343.038C101.067 342.688 102.015 342.553 102.954 342.645C103.893 342.736 104.797 343.052 105.589 343.564C110.595 346.424 112.691 358.17 113.568 367.305C113.248 354.351 111.122 336.432 102.627 326.677L103.401 326.007C110.513 334.161 113.279 347.538 114.239 359.275C114.373 354.279 114.683 348.87 115.343 343.719C115.116 332.664 114.156 322.631 111.627 319.215L112.464 318.595C114.693 321.609 115.767 329.268 116.2 338.207C117.47 331.508 119.493 325.821 122.662 322.9L123.353 323.653C119.575 327.132 117.49 335.069 116.396 343.843C116.396 345.082 116.396 346.341 116.448 347.6C117.428 342.439 118.75 338.197 120.494 336.494C126.378 330.775 133.294 336.411 133.355 336.494L132.695 337.278C132.447 337.072 126.429 332.189 121.217 337.278C118.925 339.497 117.408 346.754 116.417 354.413C116.283 363.589 115.829 372.219 115.519 377.235C115.519 378.03 115.591 378.484 115.591 378.525H115.436C115.323 380.259 115.24 381.374 115.22 381.622L114.311 381.55C114.311 382.179 114.218 382.582 114.208 382.737L113.176 382.644C113.176 382.561 113.331 381.034 113.444 378.515H113.124C113.124 378.226 112.784 348.891 105.021 344.452C104.366 344.018 103.615 343.749 102.833 343.668C102.051 343.588 101.262 343.697 100.531 343.988C95.9895 345.866 93.5638 354.557 93.5431 354.65L92.5109 354.372C92.707 354 95.174 345.113 100.191 343.038Z" fill="#263238"/>
<path d="M127.038 343.977C131.549 344.297 135.038 350.398 135.193 350.656L134.285 351.161C134.285 351.099 130.92 345.288 126.966 344.968C125.304 344.865 123.725 345.763 122.259 347.662C116.169 355.621 117.398 378.226 117.408 378.453L116.376 378.515C116.376 377.565 115.116 355.29 121.444 347.043C123.126 344.875 125.015 343.833 127.038 343.977Z" fill="#263238"/>
<g opacity="0.2">
<path opacity="0.2" d="M100.192 343.038C101.068 342.688 102.016 342.553 102.955 342.645C103.894 342.736 104.798 343.052 105.59 343.564C110.596 346.424 112.692 358.17 113.569 367.305C113.249 354.351 111.123 336.432 102.628 326.677L103.402 326.007C110.514 334.161 113.28 347.538 114.24 359.275C114.374 354.279 114.684 348.87 115.344 343.719C115.117 332.664 114.157 322.631 111.628 319.215L112.465 318.595C114.694 321.609 115.768 329.268 116.201 338.207C117.471 331.508 119.494 325.821 122.663 322.9L123.354 323.653C119.576 327.132 117.491 335.069 116.397 343.843C116.397 345.082 116.397 346.341 116.449 347.6C117.429 342.439 118.751 338.197 120.495 336.494C126.379 330.775 133.295 336.411 133.356 336.494L132.696 337.278C132.448 337.072 126.43 332.189 121.218 337.278C118.926 339.497 117.409 346.754 116.418 354.413C116.284 363.589 115.83 372.219 115.52 377.235C115.52 378.03 115.592 378.484 115.592 378.525H115.437C115.324 380.259 115.241 381.374 115.221 381.622L114.312 381.55C114.312 382.179 114.219 382.582 114.209 382.737L113.177 382.644C113.177 382.561 113.332 381.034 113.445 378.515H113.125C113.125 378.226 112.784 348.891 105.022 344.452C104.367 344.018 103.616 343.749 102.834 343.668C102.052 343.588 101.263 343.697 100.532 343.988C95.9904 345.866 93.5648 354.557 93.5441 354.65L92.5119 354.372C92.708 354 95.175 345.113 100.192 343.038Z" fill="white"/>
<path opacity="0.2" d="M127.039 343.977C131.55 344.297 135.039 350.398 135.193 350.656L134.285 351.161C134.285 351.099 130.92 345.288 126.967 344.968C125.305 344.865 123.725 345.763 122.26 347.662C116.17 355.621 117.398 378.226 117.408 378.453L116.376 378.515C116.376 377.565 115.117 355.29 121.444 347.043C123.127 344.875 125.016 343.833 127.039 343.977Z" fill="white"/>
</g>
<path d="M98.3945 348.364C98.3945 348.364 102.43 349.85 101.233 353.37C100.036 356.89 87.257 362.66 87.257 362.66C87.257 362.66 81.8998 357.757 86.8131 349.778C91.7264 341.799 98.2809 345.845 98.3945 348.364Z" fill="#263238"/>
<path d="M115.962 341.665C115.962 341.665 111.658 341.479 111.41 345.195C111.163 348.911 120.7 359.161 120.7 359.161C120.7 359.161 127.534 356.694 126.068 347.435C124.602 338.176 117.026 339.384 115.962 341.665Z" fill="#263238"/>
<path d="M119.607 323.911C119.607 323.911 116.737 323.601 116.964 321.847C117.191 320.092 128.122 315.602 134.512 322.879C134.512 322.879 130.383 329.96 124.417 330.053C118.451 330.146 119.607 323.911 119.607 323.911Z" fill="#263238"/>
<path d="M114.259 319.669C114.259 319.669 116.85 320.928 117.583 319.318C118.316 317.708 111.39 308.118 102.1 310.885C102.1 310.885 101.852 319.08 106.858 322.311C111.865 325.542 114.259 319.669 114.259 319.669Z" fill="#263238"/>
<path d="M127.844 346.95C127.844 346.95 125.862 345.35 127.998 344.566C130.135 343.781 140.622 344.008 140.726 354.392C140.726 354.392 128.515 356.457 127.008 352.472C125.501 348.488 127.844 346.95 127.844 346.95Z" fill="#263238"/>
<path d="M102.936 323.653C102.936 323.653 104.918 322.053 102.781 321.268C100.645 320.484 90.1575 320.711 90.0543 331.095C90.0543 331.095 102.265 333.16 103.772 329.175C105.279 325.191 102.936 323.653 102.936 323.653Z" fill="#263238"/>
<path d="M109.398 332.014C109.398 332.014 109.573 330.073 108.004 330.837C106.435 331.601 100.964 337.495 106.631 343.09C106.631 343.09 114.259 337.443 112.886 334.502C111.514 331.56 109.398 332.014 109.398 332.014Z" fill="#263238"/>
<path d="M129.64 334.79C129.64 334.79 128.463 333.232 130.187 333.046C131.911 332.86 139.694 334.925 137.887 342.677C137.887 342.677 128.422 341.964 128.019 338.744C127.617 335.523 129.64 334.79 129.64 334.79Z" fill="#263238"/>
<path d="M97.6408 407.314H130.114L133.613 371.764H94.1313L97.6408 407.314Z" fill="#2153CC"/>
<path d="M92.3974 367.842H135.348V375.687H92.3974V367.842Z" fill="#1C47B1"/>
<path opacity="0.6" fill-rule="evenodd" clip-rule="evenodd" d="M243.454 371.16C243.491 371.213 244.931 373.588 246.057 375.452C247.614 373.49 249.575 371.023 249.617 370.977C250.003 370.412 250.643 370.042 251.369 370.042C252.548 370.042 253.505 371.02 253.505 372.225C253.505 372.802 253.285 373.327 252.927 373.718C252.868 373.805 247.549 380.503 247.479 380.579C247.385 380.716 247.277 380.842 247.156 380.953C245.557 382.969 243.185 385.954 243.138 386.004C242.753 386.569 242.113 386.939 241.387 386.939C240.207 386.939 239.251 385.962 239.251 384.756C239.251 384.179 239.47 383.654 239.829 383.263C239.863 383.214 241.671 380.935 243.194 379.017C242.747 378.281 242.003 377.053 241.329 375.938C239.814 377.849 237.841 380.331 237.654 380.559C237.028 381.501 235.786 381.797 234.81 381.212C234.407 380.972 234.111 380.617 233.936 380.212C233.93 380.198 233.924 380.184 233.919 380.17C233.865 380.078 233.818 379.984 233.778 379.886C233.75 379.836 232.816 377.949 231.96 376.214C230.418 378.157 228.532 380.53 228.49 380.575C228.104 381.139 227.464 381.51 226.738 381.51C225.559 381.51 224.603 380.532 224.603 379.327C224.603 378.75 224.822 378.225 225.181 377.834C225.24 377.748 230.558 371.05 230.628 370.973C231.014 370.409 231.654 370.038 232.38 370.038C232.865 370.038 233.313 370.204 233.672 370.483C233.951 370.699 234.165 370.975 234.308 371.282C234.323 371.315 234.338 371.348 234.352 371.381C234.382 371.434 235.401 373.492 236.31 375.334C237.815 373.437 239.65 371.129 239.773 370.98C240.348 370.077 241.501 369.726 242.479 370.201C242.915 370.412 243.247 370.755 243.454 371.16Z" fill="#FAFCFF"/>
<defs>
<linearGradient id="paint0_linear_307_2686" x1="271.5" y1="0.1521" x2="271.5" y2="543.152" gradientUnits="userSpaceOnUse">
<stop stop-color="#2153CC"/>
<stop offset="1" stop-color="#2153CC" stop-opacity="0"/>
</linearGradient>
</defs>
</svg>
